<svg xmlns="http://www.w3.org/2000/svg" width="18" height="17.965" viewBox="0 0 18 17.965"><defs><style>.a{fill:#fff;}</style></defs><g transform="translate(0 -0.499)"><g transform="translate(0 0.499)"><path class="a" d="M8.982.5A5.191,5.191,0,0,0,6.044,9.971,9,9,0,0,0,0,18.464H1.4a7.588,7.588,0,0,1,7.579-7.579A5.193,5.193,0,0,0,8.982.5Zm0,8.982a3.789,3.789,0,1,1,3.789-3.789A3.794,3.794,0,0,1,8.982,9.481Z" transform="translate(0 -0.499)"/></g><g transform="translate(10.702 11.166)"><path class="a" d="M308.756,306.853v-2.947h-1.4v2.947H304.4v1.4h2.947V311.2h1.4v-2.947H311.7v-1.4Z" transform="translate(-304.405 -303.906)"/></g></g></svg>