<svg xmlns="http://www.w3.org/2000/svg" width="16.469" height="16.469" viewBox="0 0 16.469 16.469">
  <defs>
    <style>
      .cls-1 {
        fill: #595959;
      }
    </style>
  </defs>
  <path id="assignee" class="cls-1" d="M8.234-14.609A8.233,8.233,0,0,0,0-6.375,8.233,8.233,0,0,0,8.234,1.859a8.233,8.233,0,0,0,8.234-8.234A8.233,8.233,0,0,0,8.234-14.609Zm0,3.188A2.922,2.922,0,0,1,11.156-8.5,2.922,2.922,0,0,1,8.234-5.578,2.922,2.922,0,0,1,5.313-8.5,2.922,2.922,0,0,1,8.234-11.422ZM8.234,0A6.363,6.363,0,0,1,3.37-2.264,3.7,3.7,0,0,1,6.641-4.25a.813.813,0,0,1,.236.037,4.4,4.4,0,0,0,1.358.229,4.379,4.379,0,0,0,1.358-.229.813.813,0,0,1,.236-.037A3.7,3.7,0,0,1,13.1-2.264,6.363,6.363,0,0,1,8.234,0Z" transform="translate(0 14.609)"/>
</svg>
