<svg xmlns="http://www.w3.org/2000/svg" width="12.056" height="12.594" viewBox="0 0 12.056 12.594">
  <defs>
    <style>
      .cls-1 {
        fill: #a4a4a4;
      }
    </style>
  </defs>
  <path id="Board_view_settings" data-name="Board view_settings" class="cls-1" d="M12.375-3.359l-1.082-.625a4.891,4.891,0,0,0,0-1.782l1.082-.625a.307.307,0,0,0,.14-.355,6.324,6.324,0,0,0-1.389-2.4.305.305,0,0,0-.376-.058l-1.082.625a4.791,4.791,0,0,0-1.544-.891V-10.72a.3.3,0,0,0-.239-.3,6.383,6.383,0,0,0-2.773,0,.3.3,0,0,0-.239.3v1.249a4.943,4.943,0,0,0-1.544.891L2.252-9.2a.3.3,0,0,0-.376.058,6.286,6.286,0,0,0-1.389,2.4.3.3,0,0,0,.14.355l1.082.625a4.891,4.891,0,0,0,0,1.782L.627-3.357A.307.307,0,0,0,.488-3,6.324,6.324,0,0,0,1.876-.6a.306.306,0,0,0,.376.058l1.082-.625a4.792,4.792,0,0,0,1.544.891V.975a.3.3,0,0,0,.239.3,6.383,6.383,0,0,0,2.773,0,.3.3,0,0,0,.239-.3V-.274a4.943,4.943,0,0,0,1.544-.891l1.082.625A.3.3,0,0,0,11.129-.6,6.286,6.286,0,0,0,12.518-3,.314.314,0,0,0,12.375-3.359ZM6.5-2.844A2.034,2.034,0,0,1,4.469-4.875,2.034,2.034,0,0,1,6.5-6.906,2.034,2.034,0,0,1,8.531-4.875,2.034,2.034,0,0,1,6.5-2.844Z" transform="translate(-0.473 11.169)"/>
</svg>
