<svg xmlns="http://www.w3.org/2000/svg" width="14" height="14" viewBox="0 0 14 14">
  <defs>
    <style>
      .cls-1 {
        fill: #09c;
      }
    </style>
  </defs>
  <path id="Board_view_add" data-name="Board view_add" class="cls-1" d="M12.5-13H1.5A1.5,1.5,0,0,0,0-11.5v11A1.5,1.5,0,0,0,1.5,1h11A1.5,1.5,0,0,0,14-.5v-11A1.5,1.5,0,0,0,12.5-13Zm-1,7.875a.376.376,0,0,1-.375.375H8.25v2.875a.376.376,0,0,1-.375.375H6.125a.376.376,0,0,1-.375-.375V-4.75H2.875A.376.376,0,0,1,2.5-5.125v-1.75a.376.376,0,0,1,.375-.375H5.75v-2.875a.376.376,0,0,1,.375-.375h1.75a.376.376,0,0,1,.375.375V-7.25h2.875a.376.376,0,0,1,.375.375Z" transform="translate(0 13)"/>
</svg>
