<svg xmlns="http://www.w3.org/2000/svg" width="17.438" height="17.438" viewBox="0 0 17.438 17.438">
  <defs>
    <style>
      .cls-1 {
        fill: #3d3d3d;
      }
    </style>
  </defs>
  <path id="close" class="cls-1" d="M9-15.469A8.717,8.717,0,0,0,.281-6.75,8.717,8.717,0,0,0,9,1.969,8.717,8.717,0,0,0,17.719-6.75,8.717,8.717,0,0,0,9-15.469ZM13.275-4.461a.422.422,0,0,1,0,.6L11.883-2.475a.422.422,0,0,1-.6,0L9-4.781,6.711-2.475a.422.422,0,0,1-.6,0L4.725-3.867a.422.422,0,0,1,0-.6L7.031-6.75,4.725-9.039a.422.422,0,0,1,0-.6l1.392-1.392a.422.422,0,0,1,.6,0L9-8.719l2.289-2.306a.422.422,0,0,1,.6,0l1.392,1.392a.422.422,0,0,1,0,.6L10.969-6.75Z" transform="translate(-0.281 15.469)"/>
</svg>
