<svg xmlns="http://www.w3.org/2000/svg" width="24.75" height="19.25" viewBox="0 0 24.75 19.25">
  <defs>
    <style>
      .cls-1 {
        fill: #595959;
      }
    </style>
  </defs>
  <path id="Dashboard_Normal" class="cls-1" d="M12.375-17.875A12.375,12.375,0,0,0,0-5.5,12.311,12.311,0,0,0,1.678.722a1.36,1.36,0,0,0,1.179.653H21.893A1.36,1.36,0,0,0,23.072.722,12.311,12.311,0,0,0,24.75-5.5,12.375,12.375,0,0,0,12.375-17.875Zm0,2.75a1.357,1.357,0,0,1,1.3,1.016,2.309,2.309,0,0,0-.148.287l-.4,1.189a1.339,1.339,0,0,1-.758.258A1.375,1.375,0,0,1,11-13.75,1.375,1.375,0,0,1,12.375-15.125ZM4.125-2.75A1.375,1.375,0,0,1,2.75-4.125,1.375,1.375,0,0,1,4.125-5.5,1.375,1.375,0,0,1,5.5-4.125,1.375,1.375,0,0,1,4.125-2.75ZM6.188-9.625A1.375,1.375,0,0,1,4.813-11a1.375,1.375,0,0,1,1.375-1.375A1.375,1.375,0,0,1,7.563-11,1.375,1.375,0,0,1,6.188-9.625Zm10.6-3.111L14.156-4.83a2.733,2.733,0,0,1,.969,2.08,2.721,2.721,0,0,1-.382,1.375H10.007A2.721,2.721,0,0,1,9.625-2.75,2.742,2.742,0,0,1,12.2-5.482l2.636-7.907a1.027,1.027,0,0,1,1.3-.652A1.032,1.032,0,0,1,16.791-12.736Zm.63,2.458.667-2a1.355,1.355,0,0,1,.475-.1A1.375,1.375,0,0,1,19.938-11a1.375,1.375,0,0,1-1.375,1.375A1.354,1.354,0,0,1,17.421-10.279Zm3.2,7.529A1.375,1.375,0,0,1,19.25-4.125,1.375,1.375,0,0,1,20.625-5.5,1.375,1.375,0,0,1,22-4.125,1.375,1.375,0,0,1,20.625-2.75Z" transform="translate(0 17.875)"/>
</svg>
