<svg xmlns="http://www.w3.org/2000/svg" width="23" height="20" viewBox="0 0 23 20">
  <defs>
    <style>
      .cls-1 {
        fill: #fff;
      }

      .cls-2 {
        fill: #3d3d3d;
        font-size: 11px;
        font-family: FontAwesome5Free-Solid, 'Font Awesome 5 Free';
      }

      .cls-3, .cls-4 {
        stroke: none;
      }

      .cls-4 {
        fill: #d8d8d8;
      }
    </style>
  </defs>
  <g id="Edit_task_add" data-name="Edit task_add" transform="translate(-717 -432)">
    <g id="Path_2728" data-name="Path 2728" class="cls-1" transform="translate(717 432)">
      <path class="cls-3" d="M 18 19.75 L 5 19.75 C 2.380840063095093 19.75 0.25 17.61915969848633 0.25 15 L 0.25 5 C 0.25 2.380840063095093 2.380840063095093 0.25 5 0.25 L 18 0.25 C 20.61915969848633 0.25 22.75 2.380840063095093 22.75 5 L 22.75 15 C 22.75 17.61915969848633 20.61915969848633 19.75 18 19.75 Z"/>
      <path class="cls-4" d="M 5 0.5 C 2.51869010925293 0.5 0.5 2.51869010925293 0.5 5 L 0.5 15 C 0.5 17.48130989074707 2.51869010925293 19.5 5 19.5 L 18 19.5 C 20.48130989074707 19.5 22.5 17.48130989074707 22.5 15 L 22.5 5 C 22.5 2.51869010925293 20.48130989074707 0.5 18 0.5 L 5 0.5 M 5 0 L 18 0 C 20.76141929626465 0 23 2.238580703735352 23 5 L 23 15 C 23 17.76141929626465 20.76141929626465 20 18 20 L 5 20 C 2.238580703735352 20 0 17.76141929626465 0 15 L 0 5 C 0 2.238580703735352 2.238580703735352 0 5 0 Z"/>
    </g>
    <text id="plus" class="cls-2" transform="translate(724 446)"><tspan x="0" y="0">plus</tspan></text>
  </g>
</svg>
