<svg xmlns="http://www.w3.org/2000/svg" width="33.242" height="28.494" viewBox="0 0 33.242 28.494">
  <defs>
    <style>
      .cls-1, .cls-3 {
        fill: #fff;
      }

      .cls-2 {
        fill: #595959;
        font-size: 16px;
      }

      .cls-2, .cls-3 {
        font-family: FontAwesome5Free-Solid, 'Font Awesome 5 Free';
      }

      .cls-3 {
        stroke: #595959;
        stroke-width: 1.5px;
        font-size: 9px;
      }

      .cls-4, .cls-5 {
        stroke: none;
      }

      .cls-5 {
        fill: #d8d8d8;
      }
    </style>
  </defs>
  <g id="Member_filter" data-name="Member filter" transform="translate(-426 -163)">
    <g id="Path_11" data-name="Path 11" class="cls-1" transform="translate(426 163)">
      <path class="cls-4" d="M 28.49354553222656 28.2435417175293 L 4.748924732208252 28.2435417175293 C 2.26821494102478 28.2435417175293 0.2500048875808716 26.22533226013184 0.2500048875808716 23.74462127685547 L 0.2500048875808716 4.748921871185303 C 0.2500048875808716 2.268211841583252 2.26821494102478 0.2500018179416656 4.748924732208252 0.2500018179416656 L 28.49354553222656 0.2500018179416656 C 30.97426414489746 0.2500018179416656 32.99247360229492 2.268211841583252 32.99247360229492 4.748921871185303 L 32.99247360229492 23.74462127685547 C 32.99247360229492 26.22533226013184 30.97426414489746 28.2435417175293 28.49354553222656 28.2435417175293 Z"/>
      <path class="cls-5" d="M 4.748924255371094 0.5000019073486328 C 2.406055450439453 0.5000019073486328 0.4999961853027344 2.406061172485352 0.4999961853027344 4.748922348022461 L 0.4999961853027344 23.74462127685547 C 0.4999961853027344 26.08748245239258 2.406055450439453 27.9935417175293 4.748924255371094 27.9935417175293 L 28.49354553222656 27.9935417175293 C 30.83640480041504 27.9935417175293 32.74246597290039 26.08748245239258 32.74246597290039 23.74462127685547 L 32.74246597290039 4.748922348022461 C 32.74246597290039 2.406061172485352 30.83640480041504 0.5000019073486328 28.49354553222656 0.5000019073486328 L 4.748924255371094 0.5000019073486328 M 4.748924255371094 1.9073486328125e-06 L 28.49354553222656 1.9073486328125e-06 C 31.11630439758301 1.9073486328125e-06 33.24246597290039 2.126161575317383 33.24246597290039 4.748922348022461 L 33.24246597290039 23.74462127685547 C 33.24246597290039 26.36738204956055 31.11630439758301 28.4935417175293 28.49354553222656 28.4935417175293 L 4.748924255371094 28.4935417175293 C 2.126165390014648 28.4935417175293 -3.814697265625e-06 26.36738204956055 -3.814697265625e-06 23.74462127685547 L -3.814697265625e-06 4.748922348022461 C -3.814697265625e-06 2.126161575317383 2.126165390014648 1.9073486328125e-06 4.748924255371094 1.9073486328125e-06 Z"/>
    </g>
    <g id="Group_13" data-name="Group 13" transform="translate(433.598 165.849)">
      <text id="user" class="cls-2" transform="translate(0 14)"><tspan x="0" y="0">user</tspan></text>
      <text id="filter" class="cls-3" transform="translate(9.498 21.297)"><tspan x="0" y="0">filter</tspan></text>
    </g>
  </g>
</svg>
