<svg xmlns="http://www.w3.org/2000/svg" width="21.875" height="25" viewBox="0 0 21.875 25">
  <defs>
    <style>
      .cls-1 {
        fill: #fff;
      }
    </style>
  </defs>
  <path id="Notifications_icon" class="cls-1" d="M10.938,3.125A3.124,3.124,0,0,0,14.061,0H7.814A3.124,3.124,0,0,0,10.938,3.125Zm10.517-7.31c-.943-1.014-2.708-2.539-2.708-7.534A7.711,7.711,0,0,0,12.5-19.295v-1.018a1.562,1.562,0,0,0-1.562-1.562,1.562,1.562,0,0,0-1.562,1.563v1.018a7.711,7.711,0,0,0-6.247,7.576c0,5-1.765,6.52-2.708,7.534A1.526,1.526,0,0,0,0-3.125,1.564,1.564,0,0,0,1.567-1.562h18.74a1.564,1.564,0,0,0,1.567-1.562A1.525,1.525,0,0,0,21.455-4.185Z" transform="translate(0 21.875)"/>
</svg>
