<svg xmlns="http://www.w3.org/2000/svg" width="13" height="11.375" viewBox="0 0 13 11.375">
  <path id="Project-selection_add_below" data-name="Project-selection_add below" d="M7.719-.812H6.094a.406.406,0,0,0-.406.406V.406a.406.406,0,0,0,.406.406H7.719A.406.406,0,0,0,8.125.406V-.406A.406.406,0,0,0,7.719-.812ZM4.469-2.437H3.25v-7.719a.406.406,0,0,0-.406-.406H2.031a.406.406,0,0,0-.406.406v7.719H.406a.406.406,0,0,0-.287.693L2.151.693a.467.467,0,0,0,.287.119A.467.467,0,0,0,2.725.693L4.756-1.744A.407.407,0,0,0,4.469-2.437Zm6.5-4.875H6.094a.406.406,0,0,0-.406.406v.813a.406.406,0,0,0,.406.406h4.875a.406.406,0,0,0,.406-.406v-.812A.406.406,0,0,0,10.969-7.312ZM9.344-4.062H6.094a.406.406,0,0,0-.406.406v.813a.406.406,0,0,0,.406.406h3.25a.406.406,0,0,0,.406-.406v-.812A.406.406,0,0,0,9.344-4.062Zm3.25-6.5h-6.5a.406.406,0,0,0-.406.406v.813a.406.406,0,0,0,.406.406h6.5A.406.406,0,0,0,13-9.344v-.812A.406.406,0,0,0,12.594-10.562Z" transform="translate(0 10.563)"/>
</svg>
