<svg xmlns="http://www.w3.org/2000/svg" width="14.625" height="12.997" viewBox="0 0 14.625 12.997">
  <path id="Project-selection_edit" d="M10.222-9.262a.248.248,0,0,0-.35,0L4.327-3.717,4.065-1.361a.494.494,0,0,0,.546.546l2.356-.262,5.545-5.545a.248.248,0,0,0,0-.35Zm4.113-.581L13.1-11.083a.993.993,0,0,0-1.4,0l-.9.9a.248.248,0,0,0,0,.35l2.29,2.29a.248.248,0,0,0,.35,0l.9-.9A.993.993,0,0,0,14.336-9.844ZM9.75-2.585V0H1.625V-8.125H7.46a.312.312,0,0,0,.216-.089L8.691-9.229a.3.3,0,0,0-.216-.521H1.219A1.219,1.219,0,0,0,0-8.531V.406A1.219,1.219,0,0,0,1.219,1.625h8.938A1.219,1.219,0,0,0,11.375.406V-3.6a.305.305,0,0,0-.521-.216L9.839-2.8A.312.312,0,0,0,9.75-2.585Z" transform="translate(0 11.372)"/>
</svg>
