<svg xmlns="http://www.w3.org/2000/svg" width="22" height="19.25" viewBox="0 0 22 19.25">
  <defs>
    <style>
      .cls-1 {
        fill: #595959;
      }
    </style>
  </defs>
  <path id="Projects_Normal" class="cls-1" d="M13.75-4.812a.687.687,0,0,1-.687.688H8.938a.687.687,0,0,1-.687-.687V-6.875H0V-.687A2.115,2.115,0,0,0,2.063,1.375H19.938A2.115,2.115,0,0,0,22-.687V-6.875H13.75Zm6.188-8.937H16.5v-2.062a2.115,2.115,0,0,0-2.062-2.062H7.563A2.115,2.115,0,0,0,5.5-15.812v2.063H2.063A2.115,2.115,0,0,0,0-11.687V-8.25H22v-3.437A2.115,2.115,0,0,0,19.938-13.75Zm-6.187,0H8.25v-1.375h5.5Z" transform="translate(0 17.875)"/>
</svg>
