<svg xmlns="http://www.w3.org/2000/svg" width="12.797" height="13" viewBox="0 0 12.797 13">
  <path id="Project-selection_milestone" d="M8.876-8.867c-1.361,0-2.484-.883-4.195-.883a4.935,4.935,0,0,0-1.728.305,1.7,1.7,0,0,0,.094-.508c0-.025,0-.065,0-.09a1.427,1.427,0,0,0-1.36-1.331A1.422,1.422,0,0,0,.2-9.953,1.42,1.42,0,0,0,.813-8.787v9.8a.609.609,0,0,0,.609.609h.406a.609.609,0,0,0,.609-.609v-2.4a7.094,7.094,0,0,1,2.906-.562c1.361,0,2.484.883,4.195.883A5.316,5.316,0,0,0,12.649-2.1.811.811,0,0,0,13-2.766V-8.939a.812.812,0,0,0-1.155-.737A7.392,7.392,0,0,1,8.876-8.867Z" transform="translate(-0.203 11.375)"/>
</svg>
