<svg xmlns="http://www.w3.org/2000/svg" width="22" height="16.5" viewBox="0 0 22 16.5">
  <defs>
    <style>
      .cls-1 {
        fill: #595959;
      }
    </style>
  </defs>
  <path id="Reports_Normal" class="cls-1" d="M21.313-2.75H2.75V-15.812a.687.687,0,0,0-.687-.687H.688A.687.687,0,0,0,0-15.812V-1.375A1.375,1.375,0,0,0,1.375,0H21.313A.687.687,0,0,0,22-.687V-2.062A.687.687,0,0,0,21.313-2.75ZM19.938-15.125H14.865a1.031,1.031,0,0,0-.729,1.76l1.392,1.392L12.375-8.819,9.222-11.972a1.374,1.374,0,0,0-1.944,0L4.327-9.02a.688.688,0,0,0,0,.972l.972.972a.688.688,0,0,0,.972,0L8.25-9.056,11.4-5.9a1.374,1.374,0,0,0,1.944,0l4.125-4.125,1.392,1.392a1.031,1.031,0,0,0,1.76-.729v-5.072A.687.687,0,0,0,19.938-15.125Z" transform="translate(0 16.5)"/>
</svg>
