<svg xmlns="http://www.w3.org/2000/svg" width="23.625" height="27" viewBox="0 0 23.625 27">
  <defs>
    <style>
      .cls-1 {
        fill: #3065ab;
      }
    </style>
  </defs>
  <path id="Resources_Dashboard" class="cls-1" d="M11.813-10.125a6.749,6.749,0,0,0,6.75-6.75,6.749,6.749,0,0,0-6.75-6.75,6.749,6.749,0,0,0-6.75,6.75A6.749,6.749,0,0,0,11.813-10.125Zm4.725,1.688h-.881a9.19,9.19,0,0,1-3.844.844,9.208,9.208,0,0,1-3.844-.844H7.088A7.089,7.089,0,0,0,0-1.35V.844A2.532,2.532,0,0,0,2.531,3.375H21.094A2.532,2.532,0,0,0,23.625.844V-1.35A7.089,7.089,0,0,0,16.537-8.437Z" transform="translate(0 23.625)"/>
</svg>
