<svg xmlns="http://www.w3.org/2000/svg" width="16.999" height="17.002" viewBox="0 0 16.999 17.002">
  <defs>
    <style>
      .cls-1 {
        fill: #09c;
      }
    </style>
  </defs>
  <path id="Search_icon" class="cls-1" d="M16.768-.176l-3.31-3.31a.8.8,0,0,0-.564-.232h-.541a6.873,6.873,0,0,0,1.461-4.25,6.905,6.905,0,0,0-6.906-6.906A6.905,6.905,0,0,0,0-7.969,6.905,6.905,0,0,0,6.906-1.062a6.873,6.873,0,0,0,4.25-1.461v.541a.8.8,0,0,0,.232.564l3.31,3.31a.794.794,0,0,0,1.126,0l.94-.94A.8.8,0,0,0,16.768-.176ZM6.906-3.719a4.248,4.248,0,0,1-4.25-4.25,4.248,4.248,0,0,1,4.25-4.25,4.248,4.248,0,0,1,4.25,4.25A4.248,4.248,0,0,1,6.906-3.719Z" transform="translate(0 14.875)"/>
</svg>
