<svg xmlns="http://www.w3.org/2000/svg" width="19.25" height="19.25" viewBox="0 0 19.25 19.25">
  <defs>
    <style>
      .cls-1 {
        fill: #595959;
      }
    </style>
  </defs>
  <path id="Templates_Normal" class="cls-1" d="M17.875-10.312H11.688V-16.5a1.375,1.375,0,0,0-1.375-1.375H8.938A1.375,1.375,0,0,0,7.563-16.5v6.188H1.375A1.375,1.375,0,0,0,0-8.937v1.375A1.375,1.375,0,0,0,1.375-6.187H7.563V0A1.375,1.375,0,0,0,8.938,1.375h1.375A1.375,1.375,0,0,0,11.688,0V-6.187h6.188A1.375,1.375,0,0,0,19.25-7.562V-8.937A1.375,1.375,0,0,0,17.875-10.312Z" transform="translate(0 17.875)"/>
</svg>
