<svg xmlns="http://www.w3.org/2000/svg" width="21.313" height="21.313" viewBox="0 0 21.313 21.313">
  <defs>
    <style>
      .cls-1 {
        fill: #595959;
      }
    </style>
  </defs>
  <path id="Time_Log_Normal" data-name="Time Log_Normal" class="cls-1" d="M11-18.906A10.654,10.654,0,0,0,.344-8.25,10.654,10.654,0,0,0,11,2.406,10.654,10.654,0,0,0,21.656-8.25,10.654,10.654,0,0,0,11-18.906ZM13.453-3.863,9.664-6.617a.519.519,0,0,1-.211-.417v-7.232a.517.517,0,0,1,.516-.516h2.063a.517.517,0,0,1,.516.516v5.917l2.729,1.985a.515.515,0,0,1,.112.722L14.175-3.975A.519.519,0,0,1,13.453-3.863Z" transform="translate(-0.344 18.906)"/>
</svg>
