<svg xmlns="http://www.w3.org/2000/svg" width="24.219" height="24.219" viewBox="0 0 24.219 24.219">
  <defs>
    <style>
      .cls-1 {
        fill: #fff;
      }
    </style>
  </defs>
  <path id="User-profile_icon" class="cls-1" d="M12.109-21.484A12.107,12.107,0,0,0,0-9.375,12.107,12.107,0,0,0,12.109,2.734,12.107,12.107,0,0,0,24.219-9.375,12.107,12.107,0,0,0,12.109-21.484Zm0,4.688a4.3,4.3,0,0,1,4.3,4.3,4.3,4.3,0,0,1-4.3,4.3,4.3,4.3,0,0,1-4.3-4.3A4.3,4.3,0,0,1,12.109-16.8Zm0,16.8A9.357,9.357,0,0,1,4.956-3.33a5.444,5.444,0,0,1,4.81-2.92,1.2,1.2,0,0,1,.347.054,6.465,6.465,0,0,0,2,.337,6.44,6.44,0,0,0,2-.337,1.2,1.2,0,0,1,.347-.054,5.444,5.444,0,0,1,4.81,2.92A9.357,9.357,0,0,1,12.109,0Z" transform="translate(0 21.484)"/>
</svg>
