<?xml version="1.0" encoding="utf-8"?>
<!-- Generator: Adobe Illustrator 24.2.3, SVG Export Plug-In . SVG Version: 6.00 Build 0)  -->
<svg version="1.1" id="Layer_1" xmlns="http://www.w3.org/2000/svg" xmlns:xlink="http://www.w3.org/1999/xlink" x="0px" y="0px"
	 viewBox="0 0 130 50" style="enable-background:new 0 0 130 50;" xml:space="preserve">
<style type="text/css">
	.st0{display:none;}
	.st1{fill:#176BB4;}
	.st2{fill:#F26B2A;}
	.st3{fill:#FFFFFF;}
	.st4{fill-rule:evenodd;clip-rule:evenodd;fill:#231F20;}
	.st5{fill:#231F20;}
</style>
<g id="Layer_2_1_" class="st0">
</g>
<g>
	<path class="st1" d="M28.7,27.6v-3.4c0-0.6-0.5-1.1-1.1-1.1c-0.6,0-1.1,0.5-1.1,1.1v6.3c0,1.4-1.1,2.5-2.5,2.5
		c-1.4,0-2.5-1.1-2.5-2.5V18.9c0-0.6-0.5-1.1-1.1-1.1S19,18.3,19,18.9v10.3c0,1.4-1.1,2.5-2.5,2.5c-1.4,0-2.5-1.1-2.5-2.5v-5.1
		c0-0.6-0.5-1.1-1.1-1.1c-0.6,0-1.1,0.5-1.1,1.1v3.5c0,0.4-0.3,0.7-0.7,0.7H3.3c1.6,7.9,8.5,13.9,16.9,13.9s15.3-6,16.9-13.9h-7.7
		C29,28.3,28.7,28,28.7,27.6z"/>
	<path class="st2" d="M10.2,24.2c0-1.4,1.1-2.5,2.5-2.5c1.4,0,2.5,1.1,2.5,2.5v5.1c0,0.6,0.5,1.1,1.1,1.1c0.6,0,1.1-0.5,1.1-1.1
		V18.9c0-1.4,1.1-2.5,2.5-2.5c1.4,0,2.5,1.1,2.5,2.5v11.6c0,0.6,0.5,1.1,1.1,1.1c0.6,0,1.1-0.5,1.1-1.1l0-6.3c0-1.4,1.1-2.5,2.5-2.5
		c1.4,0,2.5,1.1,2.5,2.5v2.7h7.2c0.1-0.6,0.1-1.3,0.1-1.9c0-9.5-7.7-17.2-17.2-17.2S3,15.5,3,25c0,0.7,0,1.3,0.1,1.9h7.1V24.2z
		 M27.5,16.8c0.9,0,1.7,0.8,1.7,1.7c0,0.9-0.8,1.7-1.7,1.7c-0.9,0-1.7-0.8-1.7-1.7C25.8,17.5,26.6,16.8,27.5,16.8z M20.2,10.9
		c0.9,0,1.7,0.8,1.7,1.7s-0.8,1.7-1.7,1.7c-0.9,0-1.7-0.8-1.7-1.7S19.3,10.9,20.2,10.9z M12.7,16.8c0.9,0,1.7,0.8,1.7,1.7
		c0,0.9-0.8,1.7-1.7,1.7S11,19.4,11,18.5C11,17.5,11.8,16.8,12.7,16.8z"/>
	<path class="st3" d="M30.1,26.9v-2.7c0-1.4-1.1-2.5-2.5-2.5c-1.4,0-2.5,1.1-2.5,2.5l0,6.3c0,0.6-0.5,1.1-1.1,1.1
		c-0.6,0-1.1-0.5-1.1-1.1V18.9c0-1.4-1.1-2.5-2.5-2.5c-1.4,0-2.5,1.1-2.5,2.5v10.3c0,0.6-0.5,1.1-1.1,1.1c-0.6,0-1.1-0.5-1.1-1.1
		v-5.1c0-1.4-1.1-2.5-2.5-2.5c-1.4,0-2.5,1.1-2.5,2.5v2.8H3.1c0.1,0.5,0.1,0.9,0.2,1.4h7.6c0.4,0,0.7-0.3,0.7-0.7v-3.5
		c0-0.6,0.5-1.1,1.1-1.1c0.6,0,1.1,0.5,1.1,1.1v5.1c0,1.4,1.1,2.5,2.5,2.5c1.4,0,2.5-1.1,2.5-2.5V18.9c0-0.6,0.5-1.1,1.1-1.1
		s1.1,0.5,1.1,1.1v11.6c0,1.4,1.1,2.5,2.5,2.5c1.4,0,2.5-1.1,2.5-2.5v-6.3c0-0.6,0.5-1.1,1.1-1.1c0.6,0,1.1,0.5,1.1,1.1v3.4
		c0,0.4,0.3,0.7,0.7,0.7h7.7c0.1-0.5,0.2-0.9,0.2-1.4H30.1z"/>
	<circle class="st3" cx="20.2" cy="12.6" r="1.7"/>
	<path class="st3" d="M27.5,20.2c0.9,0,1.7-0.8,1.7-1.7c0-0.9-0.8-1.7-1.7-1.7c-0.9,0-1.7,0.8-1.7,1.7
		C25.8,19.4,26.6,20.2,27.5,20.2z"/>
	<path class="st3" d="M12.7,20.2c0.9,0,1.7-0.8,1.7-1.7c0-0.9-0.8-1.7-1.7-1.7S11,17.5,11,18.5C11,19.4,11.8,20.2,12.7,20.2z"/>
	<g>
		<polygon class="st4" points="53.3,7.8 53.3,9.1 51.3,9.1 51.3,15.5 49.9,15.5 49.9,9.1 47.9,9.1 47.9,7.8 		"/>
		<rect x="61.4" y="7.8" class="st4" width="1.5" height="7.7"/>
		<path class="st5" d="M68.3,7.8h-1.6L64,15.5h1.5l0.5-1.6h2.9l0.5,1.6H71L68.3,7.8z M66.4,12.8l1.1-3.3l1.1,3.3H66.4z"/>
		<polygon class="st4" points="74.1,7.8 77.1,13.1 77.1,7.8 78.5,7.8 78.5,15.5 76.6,15.5 73.6,10.1 73.6,15.5 72.2,15.5 72.2,7.8 
					"/>
		<polygon class="st4" points="85.2,7.8 85.2,9.1 82,14.1 85.2,14.1 85.2,15.5 80.3,15.5 80.3,14 83.5,9.1 80.3,9.1 80.3,7.8 		"/>
		<path class="st5" d="M57.6,12.1c1-0.1,1.8-0.8,1.9-1.8C59.6,9,59,8.4,58.6,8.2c-0.6-0.4-1.4-0.4-4.1-0.4c0,0,0,7.7,0,7.7H56v-3.1
			l2.1,3.1h1.8C59.9,15.5,58.3,13.2,57.6,12.1z M56,11.3V9c1.1,0,1.3,0.1,1.5,0.2c0.2,0.1,0.5,0.4,0.5,1.1c0,0.5-0.5,1-1,1
			C56.4,11.3,56,11.3,56,11.3z"/>
		<path class="st5" d="M86.4,8.8v-1h0.2l0.2,0.7c0,0.1,0,0.1,0,0.2c0,0,0-0.1,0.1-0.2l0.2-0.7h0.2v1h-0.1V8l-0.3,0.9h-0.1L86.5,8
			v0.9H86.4z"/>
		<path class="st5" d="M85.4,8.5l0.2,0c0,0.1,0,0.1,0.1,0.2c0,0,0.1,0.1,0.2,0.1c0.1,0,0.1,0,0.2,0c0,0,0.1-0.1,0.1-0.1
			c0,0,0-0.1,0-0.1c0,0-0.1,0-0.2-0.1c-0.1,0-0.2-0.1-0.3-0.1c0,0-0.1-0.1-0.1-0.1c0,0,0-0.1,0-0.1c0,0,0-0.1,0-0.1
			c0,0,0-0.1,0.1-0.1c0,0,0.1,0,0.1,0c0,0,0.1,0,0.1,0c0.1,0,0.1,0,0.2,0c0.1,0,0.1,0.1,0.1,0.1c0,0,0.1,0.1,0.1,0.2l-0.2,0
			C86,8,86,8,85.9,8c0,0-0.1,0-0.2,0c-0.1,0-0.1,0-0.2,0c0,0,0,0.1,0,0.1c0,0,0,0,0,0.1c0,0,0,0,0.1,0c0,0,0.1,0,0.1,0
			c0.1,0,0.2,0.1,0.2,0.1c0,0,0.1,0,0.1,0.1c0,0,0,0.1,0,0.1c0,0.1,0,0.1,0,0.2c0,0-0.1,0.1-0.1,0.1c-0.1,0-0.1,0-0.2,0
			c-0.1,0-0.2,0-0.3-0.1C85.5,8.7,85.4,8.6,85.4,8.5z"/>
	</g>
	<g>
		<polygon class="st3" points="18.9,34.8 18.9,35.6 21.2,36.9 21.8,36.5 		"/>
		<path class="st3" d="M23.5,37.4L23.5,37.4L23,37.2l-0.7,0.4l0.2,0.1l0,0c0,0,0,0,0,0c0,0,0,0,0,0l0,0L18.7,40c0,0,0,0,0,0
			c0,0-0.1,0-0.1-0.1v0v-5.7v0c0,0,0-0.1,0.1-0.1c0,0,0,0,0,0l0,0l3.8,2.2l0,0c0,0,0,0,0,0c0,0,0,0,0,0l0,0l-3.6,2.1v0.8l4.6-2.6
			l0,0c0.1-0.1,0.2-0.2,0.2-0.3c0-0.1-0.1-0.2-0.2-0.3l0,0l-5-2.9c-0.1,0-0.1-0.1-0.2-0.1c-0.2,0-0.3,0.2-0.3,0.3c0,0,0,0,0,0h0v7.1
			l0,0c0,0,0,0,0,0c0,0.2,0.2,0.3,0.3,0.3c0.1,0,0.1,0,0.2,0l0,0l5-2.9l0,0c0.1,0,0.1-0.1,0.1-0.1C23.7,37.7,23.6,37.5,23.5,37.4z"
			/>
		<path class="st3" d="M17.3,33.9c-0.1,0-0.1,0-0.2,0c-0.2,0-0.3,0.2-0.3,0.3c0,0,0,0,0,0h0v5.8h0c0,0,0,0,0,0
			c0,0.2,0.2,0.3,0.3,0.3c0.1,0,0.1,0,0.2,0l0,0l0.4-0.2v-0.8l-0.1,0.1l0,0c0,0,0,0,0,0c0,0-0.1,0-0.1,0v0v-4.4v0c0,0,0,0,0.1,0
			c0,0,0,0,0,0l0,0l0.1,0.1v-0.8L17.3,33.9L17.3,33.9z"/>
	</g>
	<g>
		<path d="M49.5,19.4h5.7c2.5,0,4.2,0.7,5.2,2.2c0.8,0.9,1.2,2,1.2,3.3v2.6c0,2.2-1.2,4-3.5,5.1c-0.7,0.2-1.3,0.4-1.8,0.4h-3.6
			c-0.7,0-1-0.4-1-1.2v-0.1c0.1-0.7,0.4-1,0.8-1h2.8c1.7,0,2.9-0.5,3.4-1.5c0.4-0.5,0.6-1.1,0.6-1.8V25c0-1.6-0.9-2.7-2.7-3.3
			c-0.6,0-1-0.1-1.3-0.1h-5v19.5c-0.1,0.7-0.4,1-1,1H49c-0.7,0-1-0.4-1-1.2V20.4C48,19.7,48.5,19.4,49.5,19.4z"/>
		<path d="M66.5,19.3c0.8,0,1.2,0.4,1.2,1.2v16c0,0.9,0.4,1.7,1.1,2.4c0.6,0.6,1.5,0.9,2.8,0.9c0,0,0.6,0,0.7,0c0,0,0.4,0,0.4,0h0.1
			c1.8,0,3-0.6,3.5-1.7c0.2-0.2,0.4-0.7,0.5-1.2c0-4.4-0.1-7.8-0.1-10.1v-5.7c0-1.1,0.2-1.6,0.6-1.6c0-0.1,0.2-0.1,0.6-0.2
			c0.7,0.1,1.1,0.4,1.1,0.9c0,0.2,0.1,0.4,0.1,0.7v15.7c0,1.9-0.9,3.5-2.7,4.7c-0.8,0.6-2,0.8-3.7,0.8h-0.5c-0.1,0-0.6,0-0.7,0
			c-2.9,0-4.8-1.3-5.9-3.8c-0.2-0.6-0.3-1.2-0.3-1.8V20.5C65.3,19.7,65.7,19.3,66.5,19.3z"/>
		<path d="M84.1,19.4c0.8,0,1.2,0.5,1.2,1.5v19H93c0.9,0,1.4,0.4,1.4,1.2c0,0.7-0.3,1-0.9,1.1h-9.5c-0.7,0-1-0.6-1-1.7V21.1
			c0-1.1,0.3-1.7,0.9-1.7C83.9,19.4,84,19.4,84.1,19.4z"/>
		<path d="M104.5,19.4h4.6c1,0,1.5,0.4,1.5,1.1v0.2c-0.1,0.7-0.4,1-0.9,1h-5.1c-1.7,0-2.9,0.4-3.4,1.3c-0.5,0.6-0.8,1.3-0.8,2.1
			c0,1.7,0.9,2.9,2.8,3.5c3.7,1.9,5.8,3,6.4,3.4c1.4,1.2,2.1,2.6,2.1,4.4c0,2.5-1.3,4.3-3.8,5.5c-0.7,0.2-1.3,0.3-1.8,0.3H99
			c-0.6,0-0.9-0.3-0.9-1v-0.1c0-0.8,0.5-1.2,1.5-1.2h6.6c1.5,0,2.5-0.8,3.2-2.5c0-0.1,0-0.4,0.1-0.9c0-1.6-0.9-2.8-2.8-3.5
			c-3.9-2-6.1-3.2-6.7-3.5c-1.3-1.2-2-2.6-2-4.3V25c0-2.4,1.2-4.1,3.7-5.3C102.4,19.5,103.3,19.4,104.5,19.4z"/>
		<path d="M125.5,19.4c1,0,1.5,0.3,1.5,0.9c0,0,0.1,0.1,0.1,0.4c-0.1,0.7-0.4,1.1-0.9,1.1h-8.2v18.2h7.9c0.8,0,1.2,0.4,1.2,1.1V41
			c0,0.8-0.3,1.2-1,1.2h-9.4c-0.7-0.1-1-0.4-1-1V20.5c0-0.8,0.5-1.2,1.5-1.2H125.5z M120.1,28.5h6c0.6,0.1,0.8,0.4,0.8,0.9v0.4
			c0,0.7-0.5,1-1.4,1c-2.3,0-4.1-0.1-5.3-0.1c-0.6,0-0.9-0.4-0.9-1.2v-0.1C119.4,28.9,119.7,28.5,120.1,28.5z"/>
	</g>
</g>
</svg>
