<svg xmlns="http://www.w3.org/2000/svg" width="55.557" height="49.151" viewBox="0 0 55.557 49.151"><defs><style>.a{fill:#ff4d00;}</style></defs><path class="a" d="M55.027,72.8,31.166,31.475a3.911,3.911,0,0,0-6.774,0L.53,72.8A3.911,3.911,0,0,0,3.917,78.67H51.64A3.911,3.911,0,0,0,55.027,72.8ZM52.2,75.085a.631.631,0,0,1-.564.326H3.917a.652.652,0,0,1-.564-.978L27.214,33.1a.652.652,0,0,1,1.129,0L52.2,74.433A.631.631,0,0,1,52.2,75.085Z" transform="translate(0 -29.519)"/><rect class="a" width="3.259" height="17.383" transform="translate(26.149 14.82)"/><circle class="a" cx="2.173" cy="2.173" r="2.173" transform="translate(25.606 35.462)"/></svg>