<svg xmlns="http://www.w3.org/2000/svg" width="11.375" height="13" viewBox="0 0 11.375 13">
  <defs>
    <style>
      .cls-1 {
        fill: #a4a4a4;
      }
    </style>
  </defs>
  <path id="Board_view_attachments" data-name="Board view_attachments" class="cls-1" d="M1.1.461A3.788,3.788,0,0,0,6.551.473L10.92-4a.406.406,0,0,0-.006-.574l-.581-.568a.406.406,0,0,0-.574.006L5.389-.663A2.165,2.165,0,0,1,2.265-.67,2.351,2.351,0,0,1,2.3-3.928L7.621-9.376a1.218,1.218,0,0,1,1.756,0,1.33,1.33,0,0,1,0,1.848L4.735-2.783a.271.271,0,0,1-.4,0,.343.343,0,0,1,.016-.464L8-6.98A.406.406,0,0,0,8-7.554l-.58-.568a.406.406,0,0,0-.574.006L3.191-4.388a1.968,1.968,0,0,0-.037,2.716A1.894,1.894,0,0,0,5.9-1.647l4.643-4.744a2.956,2.956,0,0,0,0-4.12,2.841,2.841,0,0,0-4.08,0L1.133-5.064A3.978,3.978,0,0,0,1.1.461Z" transform="translate(0 11.375)"/>
</svg>
