<svg xmlns="http://www.w3.org/2000/svg" width="18.406" height="18.406" viewBox="0 0 18.406 18.406">
  <defs>
    <style>
      .cls-1 {
        fill: #3d3d3d;
      }
    </style>
  </defs>
  <path id="Edit_task_time" data-name="Edit task_time" class="cls-1" d="M9.5-16.328a9.2,9.2,0,0,0-9.2,9.2,9.2,9.2,0,0,0,9.2,9.2,9.2,9.2,0,0,0,9.2-9.2A9.2,9.2,0,0,0,9.5-16.328ZM11.619-3.336,8.346-5.715a.448.448,0,0,1-.182-.36V-12.32a.447.447,0,0,1,.445-.445h1.781a.447.447,0,0,1,.445.445v5.11L13.192-5.5a.445.445,0,0,1,.1.623l-1.046,1.44A.448.448,0,0,1,11.619-3.336Z" transform="translate(-0.297 16.328)"/>
</svg>
