<svg xmlns="http://www.w3.org/2000/svg" width="24.219" height="24.219" viewBox="0 0 24.219 24.219">
  <defs>
    <style>
      .cls-1 {
        fill: #fff;
      }
    </style>
  </defs>
  <path id="Help_icon" class="cls-1" d="M24.609-9.375A12.111,12.111,0,0,0,12.5-21.484,12.111,12.111,0,0,0,.391-9.375,12.109,12.109,0,0,0,12.5,2.734,12.109,12.109,0,0,0,24.609-9.375ZM12.825-17.48c2.752,0,5.69,2.148,5.69,4.98,0,3.761-4.062,3.819-4.062,5.208v.065a.586.586,0,0,1-.586.586H11.133a.586.586,0,0,1-.586-.586v-.2c0-2,1.52-2.806,2.669-3.45.985-.552,1.589-.928,1.589-1.659,0-.967-1.234-1.609-2.231-1.609-1.328,0-1.926.642-2.8,1.748a.586.586,0,0,1-.814.1L7.267-13.573a.587.587,0,0,1-.133-.794A6.324,6.324,0,0,1,12.825-17.48ZM12.5-5.371a2.249,2.249,0,0,1,2.246,2.246A2.249,2.249,0,0,1,12.5-.879a2.249,2.249,0,0,1-2.246-2.246A2.249,2.249,0,0,1,12.5-5.371Z" transform="translate(-0.391 21.484)"/>
</svg>
