<svg xmlns="http://www.w3.org/2000/svg" width="18.75" height="25" viewBox="0 0 18.75 25">
  <defs>
    <style>
      .cls-1 {
        fill: #595959;
      }
    </style>
  </defs>
  <path id="My_Tasks_Normal" data-name="My Tasks_Normal" class="cls-1" d="M16.406-18.75H12.5a3.128,3.128,0,0,0-3.125-3.125A3.128,3.128,0,0,0,6.25-18.75H2.344A2.344,2.344,0,0,0,0-16.406V.781A2.344,2.344,0,0,0,2.344,3.125H16.406A2.344,2.344,0,0,0,18.75.781V-16.406A2.344,2.344,0,0,0,16.406-18.75ZM4.688-1.172A1.169,1.169,0,0,1,3.516-2.344,1.169,1.169,0,0,1,4.688-3.516,1.169,1.169,0,0,1,5.859-2.344,1.169,1.169,0,0,1,4.688-1.172Zm0-4.687A1.169,1.169,0,0,1,3.516-7.031,1.169,1.169,0,0,1,4.688-8.2,1.169,1.169,0,0,1,5.859-7.031,1.169,1.169,0,0,1,4.688-5.859Zm0-4.687a1.169,1.169,0,0,1-1.172-1.172,1.169,1.169,0,0,1,1.172-1.172,1.169,1.169,0,0,1,1.172,1.172A1.169,1.169,0,0,1,4.688-10.547Zm4.688-9.375a1.169,1.169,0,0,1,1.172,1.172,1.169,1.169,0,0,1-1.172,1.172A1.169,1.169,0,0,1,8.2-18.75,1.169,1.169,0,0,1,9.375-19.922Zm6.25,17.969a.392.392,0,0,1-.391.391H8.2a.392.392,0,0,1-.391-.391v-.781A.392.392,0,0,1,8.2-3.125h7.031a.392.392,0,0,1,.391.391Zm0-4.687a.392.392,0,0,1-.391.391H8.2a.392.392,0,0,1-.391-.391v-.781A.392.392,0,0,1,8.2-7.812h7.031a.392.392,0,0,1,.391.391Zm0-4.687a.392.392,0,0,1-.391.391H8.2a.392.392,0,0,1-.391-.391v-.781A.392.392,0,0,1,8.2-12.5h7.031a.392.392,0,0,1,.391.391Z" transform="translate(0 21.875)"/>
</svg>
