<svg xmlns="http://www.w3.org/2000/svg" width="13" height="10.157" viewBox="0 0 13 10.157">
  <path id="Project-selection_scroll_to_task" data-name="Project-selection_scroll to task" d="M0-7.109A.609.609,0,0,0,.609-6.5H9.75v1.219a.61.61,0,0,0,1.04.431l2.031-2.031a.609.609,0,0,0,0-.862L10.79-9.775a.61.61,0,0,0-1.04.431v1.219H.609A.609.609,0,0,0,0-7.516ZM12.391-3.25H3.25V-4.469A.61.61,0,0,0,2.21-4.9L.178-2.868a.609.609,0,0,0,0,.862L2.21.025A.61.61,0,0,0,3.25-.406V-1.625h9.141A.609.609,0,0,0,13-2.234v-.406A.609.609,0,0,0,12.391-3.25Z" transform="translate(0 9.954)"/>
</svg>
