<svg xmlns="http://www.w3.org/2000/svg" width="11.375" height="11.375" viewBox="0 0 11.375 11.375">
  <path id="Project-selection_add_child" data-name="Project-selection_add child" d="M10.563-6.094H6.906V-9.75a.813.813,0,0,0-.812-.812H5.281a.813.813,0,0,0-.812.813v3.656H.813A.813.813,0,0,0,0-5.281v.813a.813.813,0,0,0,.813.813H4.469V0a.813.813,0,0,0,.813.813h.813A.813.813,0,0,0,6.906,0V-3.656h3.656a.813.813,0,0,0,.813-.812v-.812A.813.813,0,0,0,10.563-6.094Z" transform="translate(0 10.563)"/>
</svg>
