<svg xmlns="http://www.w3.org/2000/svg" width="13" height="11.375" viewBox="0 0 13 11.375">
  <path id="Project-selection_add_above" data-name="Project-selection_add above" d="M6.094-8.937H7.719a.406.406,0,0,0,.406-.406v-.812a.406.406,0,0,0-.406-.406H6.094a.406.406,0,0,0-.406.406v.813A.406.406,0,0,0,6.094-8.937Zm0,3.25h3.25a.406.406,0,0,0,.406-.406v-.812a.406.406,0,0,0-.406-.406H6.094a.406.406,0,0,0-.406.406v.813A.406.406,0,0,0,6.094-5.687Zm6.5,4.875h-6.5a.406.406,0,0,0-.406.406V.406a.406.406,0,0,0,.406.406h6.5A.406.406,0,0,0,13,.406V-.406A.406.406,0,0,0,12.594-.812Zm-6.5-1.625h4.875a.406.406,0,0,0,.406-.406v-.812a.406.406,0,0,0-.406-.406H6.094a.406.406,0,0,0-.406.406v.813A.406.406,0,0,0,6.094-2.437ZM.406-7.312H1.625V.406a.406.406,0,0,0,.406.406h.813A.406.406,0,0,0,3.25.406V-7.312H4.469a.406.406,0,0,0,.287-.693L2.725-10.443a.467.467,0,0,0-.287-.119.467.467,0,0,0-.287.119L.119-8.006A.407.407,0,0,0,.406-7.312Z" transform="translate(0 10.563)"/>
</svg>
