<svg xmlns="http://www.w3.org/2000/svg" width="12.594" height="12.594" viewBox="0 0 12.594 12.594">
  <path id="Project-selection_reactivate_task" data-name="Project-selection_reactivate task" d="M6.512-11.172A6.308,6.308,0,0,0,.2-4.875a6.3,6.3,0,0,0,6.3,6.3A6.274,6.274,0,0,0,10.719-.2a.305.305,0,0,0,.012-.443L9.725-1.65a.3.3,0,0,0-.416-.014A4.234,4.234,0,0,1,6.5-.609,4.266,4.266,0,0,1,2.235-4.838a4.266,4.266,0,0,1,4.3-4.3,4.235,4.235,0,0,1,2.875,1.15l-1.06,1.06a.609.609,0,0,0,.431,1.04h3.4A.609.609,0,0,0,12.8-6.5V-9.9a.609.609,0,0,0-1.04-.431l-.907.907A6.276,6.276,0,0,0,6.512-11.172Z" transform="translate(-0.203 11.172)"/>
</svg>
