<svg xmlns="http://www.w3.org/2000/svg" width="27.5" height="19.25" viewBox="0 0 27.5 19.25">
  <defs>
    <style>
      .cls-1 {
        fill: #595959;
      }
    </style>
  </defs>
  <path id="Resource_view_Normal" data-name="Resource view_Normal" class="cls-1" d="M4.125-9.625a2.753,2.753,0,0,0,2.75-2.75,2.753,2.753,0,0,0-2.75-2.75,2.753,2.753,0,0,0-2.75,2.75A2.753,2.753,0,0,0,4.125-9.625Zm19.25,0a2.753,2.753,0,0,0,2.75-2.75,2.753,2.753,0,0,0-2.75-2.75,2.753,2.753,0,0,0-2.75,2.75A2.753,2.753,0,0,0,23.375-9.625ZM24.75-8.25H22a2.742,2.742,0,0,0-1.938.8,6.285,6.285,0,0,1,3.227,4.7h2.836A1.374,1.374,0,0,0,27.5-4.125V-5.5A2.753,2.753,0,0,0,24.75-8.25Zm-11,0a4.81,4.81,0,0,0,4.813-4.812,4.81,4.81,0,0,0-4.812-4.812,4.81,4.81,0,0,0-4.812,4.813A4.81,4.81,0,0,0,13.75-8.25Zm3.3,1.375h-.357a6.769,6.769,0,0,1-2.943.688,6.783,6.783,0,0,1-2.943-.687H10.45A4.951,4.951,0,0,0,5.5-1.925V-.687A2.063,2.063,0,0,0,7.563,1.375H19.938A2.063,2.063,0,0,0,22-.687V-1.925A4.951,4.951,0,0,0,17.05-6.875ZM7.438-7.451A2.742,2.742,0,0,0,5.5-8.25H2.75A2.753,2.753,0,0,0,0-5.5v1.375A1.374,1.374,0,0,0,1.375-2.75H4.207A6.3,6.3,0,0,1,7.438-7.451Z" transform="translate(0 17.875)"/>
</svg>
