<svg xmlns="http://www.w3.org/2000/svg" width="18.703" height="19" viewBox="0 0 18.703 19">
  <defs>
    <style>
      .cls-1 {
        fill: #19eb66;
      }
    </style>
  </defs>
  <path id="status-flag_green" class="cls-1" d="M12.972-12.959c-1.989,0-3.631-1.291-6.131-1.291a7.213,7.213,0,0,0-2.525.446,2.48,2.48,0,0,0,.137-.742c0-.036,0-.1,0-.132a2.085,2.085,0,0,0-1.987-1.945A2.078,2.078,0,0,0,.3-14.547a2.075,2.075,0,0,0,.891,1.705V1.484a.891.891,0,0,0,.891.891h.594a.891.891,0,0,0,.891-.891v-3.5A10.368,10.368,0,0,1,7.809-2.84c1.989,0,3.631,1.291,6.131,1.291a7.769,7.769,0,0,0,4.546-1.516A1.185,1.185,0,0,0,19-4.043v-9.021a1.187,1.187,0,0,0-1.688-1.077A10.8,10.8,0,0,1,12.972-12.959Z" transform="translate(-0.297 16.625)"/>
</svg>
